<svg width="24" height="24" viewBox="0 0 24 24" fill="none" xmlns="http://www.w3.org/2000/svg">
<path fill-rule="evenodd" clip-rule="evenodd" d="M15.8502 4.98743C14.3181 4.14625 12.5526 3.82997 10.8238 4.08694C9.09498 4.34391 7.49787 5.15999 6.27667 6.41042C5.05546 7.66084 4.27737 9.2768 4.06134 11.0112C3.84531 12.7457 4.20325 14.5031 5.08041 16.0149C5.35758 16.4926 5.96952 16.6551 6.44722 16.378C6.92492 16.1008 7.08748 15.4889 6.81031 15.0112C6.15243 13.8773 5.88399 12.5592 6.04601 11.2584C6.20802 9.9576 6.7916 8.74563 7.7075 7.80782C8.6234 6.87 9.82123 6.25793 11.1179 6.0652C12.2978 5.88982 13.5005 6.07047 14.5733 6.57983C14.9752 5.96845 15.5636 5.49054 16.2575 5.22697C16.1244 5.14332 15.9886 5.06342 15.8502 4.98743ZM19.9386 11.0106C19.4211 11.5134 18.7487 11.8575 17.9999 11.9646C18.0027 12.4353 17.9501 12.9076 17.8411 13.3716C17.5415 14.6477 16.8321 15.7906 15.8215 16.6256C14.811 17.4605 13.5548 17.9415 12.245 17.995C11.6931 18.0175 11.2641 18.4832 11.2866 19.035C11.3092 19.5868 11.7748 20.0159 12.3266 19.9933C14.073 19.922 15.7479 19.2806 17.0954 18.1674C18.4428 17.0542 19.3886 15.5303 19.7882 13.8287C20.0063 12.8996 20.0551 11.9454 19.9386 11.0106Z" fill="#33363F"/>
<path fill-rule="evenodd" clip-rule="evenodd" d="M17.5 11C18.8807 11 20 9.88071 20 8.5C20 7.11929 18.8807 6 17.5 6C16.1193 6 15 7.11929 15 8.5C15 9.88071 16.1193 11 17.5 11ZM16.8933 7.72534C16.8238 7.7561 16.8039 7.7994 16.8335 7.85522L16.9531 8.08081C16.9805 8.13322 17.0209 8.14803 17.0745 8.12524C17.1178 8.10702 17.1605 8.08195 17.2026 8.05005C17.2448 8.01815 17.2835 7.97998 17.3188 7.93555H17.3257C17.3211 7.98112 17.3188 8.02669 17.3188 8.07227V9.69751C17.3188 9.76587 17.353 9.80005 17.4214 9.80005H17.6948C17.7632 9.80005 17.7974 9.76587 17.7974 9.69751V7.44165C17.7974 7.37329 17.7632 7.33911 17.6948 7.33911H17.4231C17.3764 7.33911 17.3274 7.37101 17.2761 7.43481C17.2305 7.49178 17.1719 7.54704 17.1001 7.60059C17.0283 7.65413 16.9594 7.69572 16.8933 7.72534Z" fill="#33363F"/>
<path d="M14 15L10 19L14 23" stroke="#33363F" stroke-width="2"/>
</svg>
