<svg width="24" height="24" viewBox="0 0 24 24" fill="none" xmlns="http://www.w3.org/2000/svg">
<path d="M3 7H4.77985C6.93172 7 8.00766 7 8.87921 7.45631C9.25172 7.65134 9.59114 7.90388 9.88499 8.20464C10.5725 8.90832 10.8817 9.93888 11.5 12V12C12.1183 14.0611 12.4275 15.0917 13.115 15.7954C13.4089 16.0961 13.7483 16.3487 14.1208 16.5437C14.9923 17 16.0683 17 18.2202 17H21M21 17L18 14M21 17L18 20" stroke="#33363F" stroke-width="2"/>
<path fill-rule="evenodd" clip-rule="evenodd" d="M21.7071 6.29285L18.7071 3.29285L17.2929 4.70706L18.5858 5.99995H18.2202L18.1753 5.99995H18.1753C17.1374 5.99994 16.2935 5.99993 15.6025 6.06086C14.8846 6.12415 14.2534 6.25807 13.657 6.57034C13.2113 6.80365 12.8036 7.10279 12.4474 7.45759C12.6883 7.85126 12.8778 8.25877 13.0406 8.66732C13.1539 8.95136 13.2635 9.26079 13.3726 9.59115C13.5242 9.27595 13.6695 9.06803 13.8303 8.90343C14.0507 8.67787 14.3052 8.48846 14.5846 8.34219C14.8597 8.19815 15.2022 8.10391 15.7782 8.05313C16.3711 8.00085 17.1267 7.99995 18.2202 7.99995H18.5858L17.2929 9.29285L18.7071 10.7071L21.7071 7.70706L22.4142 6.99995L21.7071 6.29285ZM10.5526 16.5423C10.3117 16.1486 10.1222 15.7411 9.95935 15.3326C9.8461 15.0485 9.73651 14.7391 9.62739 14.4088C9.4758 14.724 9.33053 14.9319 9.16971 15.0965C8.94933 15.322 8.69476 15.5114 8.41538 15.6577C8.14027 15.8018 7.79776 15.896 7.22182 15.9468C6.62893 15.9991 5.87329 16 4.77985 16H3V18H4.77985H4.8247H4.82472C5.86257 18 6.70648 18 7.39748 17.939C8.11537 17.8758 8.7466 17.7418 9.34305 17.4296C9.78866 17.1963 10.1964 16.8971 10.5526 16.5423Z" fill="#33363F"/>
</svg>
