<svg width="48" height="48" viewBox="0 0 48 48" fill="none" xmlns="http://www.w3.org/2000/svg" xmlns:xlink="http://www.w3.org/1999/xlink">
<mask id="mask_0_201_1540" style="mask-type:alpha" maskUnits="userSpaceOnUse" x="0" y="0" width="24" height="24">
<rect  x="0" y="0" width="48" height="48" fill="#D9D9D9"/>
</mask>
<g mask="url(#mask_0_201_1540)">
<path d="M24,44C21.222,44 18.62,43.472 16.194,42.417C13.769,41.361 11.657,39.935 9.861,38.139C8.065,36.343 6.639,34.231 5.583,31.806C4.528,29.38 4,26.778 4,24C4,21.222 4.528,18.62 5.583,16.194C6.639,13.769 8.065,11.657 9.861,9.861C11.657,8.065 13.769,6.639 16.194,5.583C18.62,4.528 21.222,4 24,4C26.778,4 29.38,4.528 31.806,5.583C34.231,6.639 36.343,8.065 38.139,9.861C39.935,11.657 41.361,13.769 42.417,16.194C43.472,18.62 44,21.222 44,24C44,26.778 43.472,29.38 42.417,31.806C41.361,34.231 39.935,36.343 38.139,38.139C36.343,39.935 34.231,41.361 31.806,42.417C29.38,43.472 26.778,44 24,44ZM30.222,33.333L33.333,30.222L26.222,23.111L26.222,12.889L21.778,12.889L21.778,24.889L30.222,33.333ZM24,39.556C28.333,39.556 32.009,38.046 35.028,35.028C38.046,32.009 39.556,28.333 39.556,24C39.556,19.667 38.046,15.991 35.028,12.972C32.009,9.954 28.333,8.444 24,8.444C19.667,8.444 15.991,9.954 12.972,12.972C9.954,15.991 8.444,19.667 8.444,24C8.444,28.333 9.954,32.009 12.972,35.028C15.991,38.046 19.667,39.556 24,39.556Z" fill="#FFFFFF" fill-opacity="0.5"/>
</g>
</svg>
