<svg width="48" height="46" viewBox="0 0 48 46" fill="none" xmlns="http://www.w3.org/2000/svg" xmlns:xlink="http://www.w3.org/1999/xlink">
<mask id="mask_0_201_3185" style="mask-type:alpha" maskUnits="userSpaceOnUse" x="0" y="0" width="24" height="22.013245">
<rect  x="0" y="0" width="48" height="44.026" fill="#D9D9D9"/>
</mask>
<g mask="url(#mask_0_201_3185)">
<path d="M24,40.358C21.222,40.358 18.62,39.873 16.194,38.905C13.769,37.937 11.657,36.629 9.861,34.982C8.065,33.334 6.639,31.398 5.583,29.173C4.528,26.947 4,24.561 4,22.013C4,19.465 4.528,17.079 5.583,14.854C6.639,12.629 8.065,10.692 9.861,9.045C11.657,7.397 13.769,6.089 16.194,5.121C18.62,4.153 21.222,3.669 24,3.669C26.778,3.669 29.38,4.153 31.806,5.121C34.231,6.089 36.343,7.397 38.139,9.045C39.935,10.692 41.361,12.629 42.417,14.854C43.472,17.079 44,19.465 44,22.013C44,24.561 43.472,26.947 42.417,29.173C41.361,31.398 39.935,33.334 38.139,34.982C36.343,36.629 34.231,37.937 31.806,38.905C29.38,39.873 26.778,40.358 24,40.358ZM30.222,30.574L33.333,27.72L26.222,21.198L26.222,11.822L21.778,11.822L21.778,22.829L30.222,30.574ZM24,36.281C28.333,36.281 32.009,34.897 35.028,32.128C38.046,29.359 39.556,25.988 39.556,22.013C39.556,18.039 38.046,14.667 35.028,11.898C32.009,9.13 28.333,7.745 24,7.745C19.667,7.745 15.991,9.13 12.972,11.898C9.954,14.667 8.444,18.039 8.444,22.013C8.444,25.988 9.954,29.359 12.972,32.128C15.991,34.897 19.667,36.281 24,36.281Z" fill="#FFFFFF" fill-opacity="0.5"/>
</g>
</svg>
