<svg width="64" height="64" viewBox="0 0 64 64" fill="none" xmlns="http://www.w3.org/2000/svg" xmlns:xlink="http://www.w3.org/1999/xlink">
<mask id="mask_0_201_3847" style="mask-type:alpha" maskUnits="userSpaceOnUse" x="0" y="0" width="32" height="32">
<rect  x="0" y="0" width="64" height="64" fill="#D9D9D9"/>
</mask>
<g mask="url(#mask_0_201_3847)">
<path d="M53.337,53.334L40.004,53.334C40.004,52.445 39.971,51.556 39.904,50.667C39.837,49.778 39.737,48.889 39.604,48L53.337,48L53.337,16L10.671,16L10.671,19.067C9.782,18.934 8.893,18.834 8.004,18.767C7.115,18.7 6.226,18.667 5.337,18.667L5.337,16C5.337,14.534 5.86,13.278 6.904,12.234C7.949,11.189 9.204,10.667 10.671,10.667L53.337,10.667C54.804,10.667 56.06,11.189 57.104,12.234C58.149,13.278 58.671,14.534 58.671,16L58.671,48C58.671,49.467 58.149,50.723 57.104,51.767C56.06,52.811 54.804,53.334 53.337,53.334ZM5.337,53.334L5.337,45.334C7.56,45.334 9.449,46.111 11.004,47.667C12.56,49.223 13.337,51.111 13.337,53.334L5.337,53.334ZM18.671,53.334C18.671,49.645 17.371,46.5 14.771,43.9C12.171,41.3 9.026,40 5.337,40L5.337,34.667C10.537,34.667 14.949,36.478 18.571,40.1C22.193,43.723 24.004,48.134 24.004,53.334L18.671,53.334ZM29.337,53.334C29.337,50 28.704,46.878 27.437,43.967C26.171,41.056 24.46,38.523 22.304,36.367C20.149,34.211 17.615,32.5 14.704,31.234C11.793,29.967 8.671,29.334 5.337,29.334L5.337,24C9.382,24 13.182,24.767 16.737,26.3C20.293,27.834 23.404,29.934 26.071,32.6C28.737,35.267 30.837,38.378 32.371,41.934C33.904,45.489 34.671,49.289 34.671,53.334L29.337,53.334Z" fill="#FFFFFF" fill-opacity="0.75"/>
</g>
</svg>
