<svg width="32" height="32" viewBox="0 0 32 32" fill="none" xmlns="http://www.w3.org/2000/svg" xmlns:xlink="http://www.w3.org/1999/xlink">
<mask id="mask_0_1_2737" style="mask-type:alpha" maskUnits="userSpaceOnUse" x="0" y="0" width="16" height="16">
<rect  x="0" y="0" width="32" height="32" fill="#D9D9D9"/>
</mask>
<g mask="url(#mask_0_1_2737)">
<path d="M26.667,26.667L20,26.667C20,26.222 19.984,25.778 19.95,25.333C19.917,24.889 19.867,24.444 19.8,24L26.667,24L26.667,8L5.334,8L5.334,9.533C4.889,9.467 4.445,9.417 4,9.383C3.556,9.35 3.111,9.333 2.667,9.333L2.667,8C2.667,7.267 2.928,6.639 3.45,6.117C3.973,5.594 4.6,5.333 5.334,5.333L26.667,5.333C27.4,5.333 28.028,5.594 28.55,6.117C29.073,6.639 29.334,7.267 29.334,8L29.334,24C29.334,24.733 29.073,25.361 28.55,25.883C28.028,26.405 27.4,26.667 26.667,26.667ZM2.667,26.667L2.667,22.667C3.778,22.667 4.723,23.055 5.5,23.833C6.278,24.611 6.667,25.555 6.667,26.667L2.667,26.667ZM9.334,26.667C9.334,24.822 8.684,23.25 7.384,21.95C6.084,20.65 4.511,20 2.667,20L2.667,17.333C5.267,17.333 7.473,18.239 9.284,20.05C11.095,21.861 12,24.067 12,26.667L9.334,26.667ZM14.667,26.667C14.667,25 14.35,23.439 13.717,21.983C13.084,20.528 12.228,19.261 11.15,18.183C10.073,17.105 8.806,16.25 7.35,15.617C5.895,14.983 4.334,14.667 2.667,14.667L2.667,12C4.689,12 6.589,12.383 8.367,13.15C10.145,13.917 11.7,14.967 13.034,16.3C14.367,17.633 15.417,19.189 16.184,20.967C16.95,22.744 17.334,24.644 17.334,26.667L14.667,26.667Z" fill="#FFFFFF" fill-opacity="0.75"/>
</g>
</svg>
