<svg width="48" height="48" viewBox="0 0 48 48" fill="none" xmlns="http://www.w3.org/2000/svg" xmlns:xlink="http://www.w3.org/1999/xlink">
<mask id="mask_0_1_4912" style="mask-type:alpha" maskUnits="userSpaceOnUse" x="0" y="0" width="24" height="24">
<rect  x="0" y="0" width="48" height="48" fill="#D9D9D9"/>
</mask>
<g mask="url(#mask_0_1_4912)">
<path d="M21.162,32.508L34.608,19.061L32.5,16.954L21.162,28.292L15.461,22.592L13.354,24.7L21.162,32.508ZM24.003,43C21.375,43 18.905,42.501 16.593,41.504C14.281,40.507 12.269,39.153 10.559,37.443C8.849,35.734 7.494,33.723 6.497,31.412C5.499,29.101 5,26.631 5,24.003C5,21.375 5.499,18.905 6.496,16.593C7.493,14.281 8.847,12.269 10.557,10.559C12.266,8.849 14.277,7.494 16.588,6.497C18.899,5.499 21.369,5 23.997,5C26.624,5 29.095,5.499 31.407,6.496C33.719,7.493 35.73,8.847 37.441,10.557C39.151,12.266 40.505,14.277 41.503,16.588C42.501,18.899 43,21.369 43,23.997C43,26.624 42.501,29.095 41.504,31.407C40.507,33.719 39.153,35.73 37.443,37.441C35.734,39.151 33.723,40.505 31.412,41.503C29.101,42.501 26.631,43 24.003,43ZM24,40C28.467,40 32.25,38.45 35.35,35.35C38.45,32.25 40,28.467 40,24C40,19.533 38.45,15.75 35.35,12.65C32.25,9.55 28.467,8 24,8C19.533,8 15.75,9.55 12.65,12.65C9.55,15.75 8,19.533 8,24C8,28.467 9.55,32.25 12.65,35.35C15.75,38.45 19.533,40 24,40Z" fill="#FFFFFF" fill-opacity="0.5"/>
</g>
</svg>
