<svg width="72" height="72" viewBox="0 0 72 72" fill="none" xmlns="http://www.w3.org/2000/svg" xmlns:xlink="http://www.w3.org/1999/xlink">
<mask id="mask_0_1_3932" style="mask-type:alpha" maskUnits="userSpaceOnUse" x="0" y="0" width="36" height="36">
<rect  x="0" y="0" width="72" height="72" fill="#D9D9D9"/>
</mask>
<g mask="url(#mask_0_1_3932)">
<path d="M26,46L46,46L46,42.842L26,42.842L26,46ZM36,39.482L43.692,31.789L41.474,29.571L37.579,33.401L37.579,23.895L34.421,23.895L34.421,33.401L30.526,29.571L28.308,31.789L36,39.482ZM36.004,56C33.237,56 30.637,55.475 28.203,54.425C25.769,53.375 23.652,51.951 21.852,50.151C20.051,48.351 18.626,46.235 17.575,43.802C16.525,41.369 16,38.77 16,36.004C16,33.237 16.525,30.637 17.575,28.203C18.625,25.769 20.049,23.652 21.849,21.852C23.649,20.051 25.765,18.626 28.198,17.575C30.631,16.525 33.23,16 35.996,16C38.763,16 41.363,16.525 43.797,17.575C46.231,18.625 48.348,20.049 50.148,21.849C51.949,23.649 53.374,25.765 54.425,28.198C55.475,30.631 56,33.23 56,35.996C56,38.763 55.475,41.363 54.425,43.797C53.375,46.231 51.951,48.348 50.151,50.148C48.351,51.949 46.235,53.374 43.802,54.425C41.369,55.475 38.77,56 36.004,56ZM36,52.842C40.702,52.842 44.684,51.211 47.947,47.947C51.211,44.684 52.842,40.702 52.842,36C52.842,31.298 51.211,27.316 47.947,24.053C44.684,20.789 40.702,19.158 36,19.158C31.298,19.158 27.316,20.789 24.053,24.053C20.789,27.316 19.158,31.298 19.158,36C19.158,40.702 20.789,44.684 24.053,47.947C27.316,51.211 31.298,52.842 36,52.842Z" fill="#FFFFFF" fill-opacity="0.75"/>
</g>
</svg>
