<svg width="48" height="48" viewBox="0 0 48 48" fill="none" xmlns="http://www.w3.org/2000/svg" xmlns:xlink="http://www.w3.org/1999/xlink">
<mask id="mask_0_1_1850" style="mask-type:alpha" maskUnits="userSpaceOnUse" x="0" y="0" width="24" height="24">
<rect  x="0" y="0" width="48" height="48" fill="#D9D9D9"/>
</mask>
<g mask="url(#mask_0_1_1850)">
<path d="M14,34L34,34L34,30.842L14,30.842L14,34ZM24,27.482L31.692,19.789L29.474,17.571L25.579,21.401L25.579,11.895L22.421,11.895L22.421,21.401L18.526,17.571L16.308,19.789L24,27.482ZM24.004,44C21.237,44 18.637,43.475 16.203,42.425C13.769,41.375 11.652,39.951 9.852,38.151C8.051,36.351 6.626,34.235 5.575,31.802C4.525,29.369 4,26.77 4,24.004C4,21.237 4.525,18.637 5.575,16.203C6.625,13.769 8.049,11.652 9.849,9.852C11.649,8.051 13.765,6.626 16.198,5.575C18.631,4.525 21.23,4 23.996,4C26.763,4 29.363,4.525 31.797,5.575C34.231,6.625 36.348,8.049 38.148,9.849C39.949,11.649 41.374,13.765 42.425,16.198C43.475,18.631 44,21.23 44,23.996C44,26.763 43.475,29.363 42.425,31.797C41.375,34.231 39.951,36.348 38.151,38.148C36.351,39.949 34.235,41.374 31.802,42.425C29.369,43.475 26.77,44 24.004,44ZM24,40.842C28.702,40.842 32.684,39.211 35.947,35.947C39.211,32.684 40.842,28.702 40.842,24C40.842,19.298 39.211,15.316 35.947,12.053C32.684,8.789 28.702,7.158 24,7.158C19.298,7.158 15.316,8.789 12.053,12.053C8.789,15.316 7.158,19.298 7.158,24C7.158,28.702 8.789,32.684 12.053,35.947C15.316,39.211 19.298,40.842 24,40.842Z" fill="#FFFFFF" fill-opacity="0.75"/>
</g>
</svg>
