<svg width="64" height="64" viewBox="0 0 64 64" fill="none" xmlns="http://www.w3.org/2000/svg" xmlns:xlink="http://www.w3.org/1999/xlink">
<mask id="mask_0_201_3842" style="mask-type:alpha" maskUnits="userSpaceOnUse" x="0" y="0" width="32" height="32">
<rect  x="0" y="0" width="64" height="64" fill="#D9D9D9"/>
</mask>
<g mask="url(#mask_0_201_3842)">
<path d="M15.999,53.334C14.533,53.334 13.277,52.811 12.233,51.767C11.188,50.723 10.666,49.467 10.666,48L10.666,40L15.999,40L15.999,48L47.999,48L47.999,40L53.333,40L53.333,48C53.333,49.467 52.81,50.723 51.766,51.767C50.722,52.811 49.466,53.334 47.999,53.334L15.999,53.334ZM31.999,42.667L18.666,29.334L22.399,25.467L29.333,32.4L29.333,10.667L34.666,10.667L34.666,32.4L41.599,25.467L45.333,29.334L31.999,42.667Z" fill="#FFFFFF" fill-opacity="0.75"/>
</g>
</svg>
