<svg width="80" height="80" viewBox="0 0 80 80" fill="none" xmlns="http://www.w3.org/2000/svg" xmlns:xlink="http://www.w3.org/1999/xlink">
<mask id="mask_0_201_2861" style="mask-type:alpha" maskUnits="userSpaceOnUse" x="0" y="0" width="40" height="40">
<rect  x="0" y="0" width="80" height="80" fill="#D9D9D9"/>
</mask>
<g mask="url(#mask_0_201_2861)">
<path d="M39.999,62.222L36.455,59.073C32.34,55.4 28.938,52.231 26.249,49.567C23.56,46.902 21.421,44.511 19.832,42.391C18.244,40.272 17.133,38.324 16.502,36.548C15.87,34.772 15.555,32.955 15.555,31.099C15.555,27.304 16.838,24.135 19.405,21.592C21.971,19.049 25.17,17.777 28.999,17.777C31.118,17.777 33.134,18.221 35.049,19.109C36.964,19.998 38.614,21.249 39.999,22.864C41.384,21.249 43.034,19.998 44.949,19.109C46.864,18.221 48.881,17.777 50.999,17.777C54.829,17.777 58.027,19.049 60.593,21.592C63.16,24.135 64.443,27.304 64.443,31.099C64.443,32.955 64.128,34.772 63.496,36.548C62.865,38.324 61.755,40.272 60.166,42.391C58.577,44.511 56.438,46.902 53.749,49.567C51.06,52.231 47.658,55.4 43.543,59.073L39.999,62.222Z" stroke="#FFFFFF" stroke-opacity="0.75" stroke-width="2" stroke-miterlimit="3.999327"/>
</g>
</svg>
