<svg width="48" height="48" viewBox="0 0 48 48" fill="none" xmlns="http://www.w3.org/2000/svg" xmlns:xlink="http://www.w3.org/1999/xlink">
<mask id="mask_0_1_5880" style="mask-type:alpha" maskUnits="userSpaceOnUse" x="0" y="0" width="24" height="24">
<rect  x="0" y="0" width="48" height="48" fill="#D9D9D9"/>
</mask>
<g mask="url(#mask_0_1_5880)">
<path d="M24.244,41.345L21.344,38.794C17.977,35.819 15.194,33.252 12.994,31.094C10.794,28.936 9.044,26.999 7.744,25.282C6.444,23.565 5.536,21.988 5.019,20.549C4.502,19.11 4.244,17.639 4.244,16.135C4.244,13.061 5.294,10.495 7.394,8.435C9.494,6.375 12.111,5.345 15.244,5.345C16.977,5.345 18.627,5.704 20.194,6.424C21.761,7.143 23.111,8.157 24.244,9.465C25.378,8.157 26.728,7.143 28.294,6.424C29.861,5.704 31.511,5.345 33.244,5.345C36.378,5.345 38.994,6.375 41.094,8.435C43.194,10.495 44.244,13.061 44.244,16.135C44.244,17.639 43.986,19.11 43.469,20.549C42.953,21.988 42.044,23.565 40.744,25.282C39.444,26.999 37.694,28.936 35.494,31.094C33.294,33.252 30.511,35.819 27.144,38.794L24.244,41.345Z" stroke="#FFFFFF" stroke-opacity="0.75" stroke-width="2" stroke-miterlimit="3.999327"/>
</g>
</svg>
