<svg width="80" height="80" viewBox="0 0 80 80" fill="none" xmlns="http://www.w3.org/2000/svg" xmlns:xlink="http://www.w3.org/1999/xlink">
<mask id="mask_0_201_704" style="mask-type:alpha" maskUnits="userSpaceOnUse" x="0" y="0" width="40" height="40">
<rect  x="0" y="0" width="80" height="80" fill="#D9D9D9"/>
</mask>
<g mask="url(#mask_0_201_704)">
<path d="M39.997,70.003L35.164,65.669C29.553,60.614 24.914,56.253 21.247,52.586C17.581,48.919 14.664,45.628 12.497,42.711C10.331,39.794 8.817,37.114 7.956,34.669C7.095,32.225 6.664,29.725 6.664,27.169C6.664,21.947 8.414,17.586 11.914,14.086C15.414,10.586 19.775,8.836 24.997,8.836C27.886,8.836 30.636,9.447 33.247,10.669C35.858,11.891 38.108,13.614 39.997,15.836C41.886,13.614 44.136,11.891 46.747,10.669C49.358,9.447 52.108,8.836 54.997,8.836C60.22,8.836 64.581,10.586 68.081,14.086C71.581,17.586 73.331,21.947 73.331,27.169C73.331,29.725 72.9,32.225 72.039,34.669C71.178,37.114 69.664,39.794 67.497,42.711C65.331,45.628 62.414,48.919 58.747,52.586C55.081,56.253 50.442,60.614 44.831,65.669L39.997,70.003ZM39.997,61.003C45.331,56.225 49.72,52.128 53.164,48.711C56.608,45.294 59.331,42.322 61.331,39.794C63.331,37.267 64.72,35.017 65.497,33.044C66.275,31.072 66.664,29.114 66.664,27.169C66.664,23.836 65.553,21.058 63.331,18.836C61.108,16.614 58.331,15.503 54.997,15.503C52.386,15.503 49.97,16.239 47.747,17.711C45.525,19.183 43.997,21.058 43.164,23.336L36.831,23.336C35.997,21.058 34.47,19.183 32.247,17.711C30.025,16.239 27.608,15.503 24.997,15.503C21.664,15.503 18.886,16.614 16.664,18.836C14.442,21.058 13.331,23.836 13.331,27.169C13.331,29.114 13.72,31.072 14.497,33.044C15.275,35.017 16.664,37.267 18.664,39.794C20.664,42.322 23.386,45.294 26.831,48.711C30.275,52.128 34.664,56.225 39.997,61.003Z" fill="#FFFFFF" fill-opacity="0.5"/>
</g>
</svg>
