<svg width="64" height="64" viewBox="0 0 64 64" fill="none" xmlns="http://www.w3.org/2000/svg" xmlns:xlink="http://www.w3.org/1999/xlink">
<mask id="mask_0_201_3839" style="mask-type:alpha" maskUnits="userSpaceOnUse" x="0" y="0" width="32" height="32">
<rect  x="0" y="0" width="64" height="64" fill="#D9D9D9"/>
</mask>
<g mask="url(#mask_0_201_3839)">
<path d="M32.325,55.127L28.458,51.726C23.969,47.759 20.258,44.337 17.325,41.459C14.392,38.582 12.058,35.999 10.325,33.71C8.592,31.421 7.38,29.318 6.692,27.399C6.003,25.481 5.658,23.519 5.658,21.514C5.658,17.416 7.058,13.993 9.858,11.247C12.658,8.5 16.147,7.127 20.325,7.127C22.636,7.127 24.836,7.607 26.925,8.566C29.014,9.525 30.814,10.876 32.325,12.62C33.836,10.876 35.636,9.525 37.725,8.566C39.814,7.607 42.014,7.127 44.325,7.127C48.503,7.127 51.992,8.5 54.792,11.247C57.592,13.993 58.992,17.416 58.992,21.514C58.992,23.519 58.647,25.481 57.958,27.399C57.269,29.318 56.058,31.421 54.325,33.71C52.592,35.999 50.258,38.582 47.325,41.459C44.392,44.337 40.68,47.759 36.192,51.726L32.325,55.127Z" stroke="#FFFFFF" stroke-opacity="0.75" stroke-width="2" stroke-miterlimit="3.999327"/>
</g>
</svg>
