<svg width="72" height="72" viewBox="0 0 72 72" fill="none" xmlns="http://www.w3.org/2000/svg" xmlns:xlink="http://www.w3.org/1999/xlink">
<mask id="mask_0_1_4105" style="mask-type:alpha" maskUnits="userSpaceOnUse" x="0" y="0" width="36" height="36">
<rect  x="0" y="0" width="72" height="72" fill="#D9D9D9"/>
</mask>
<g mask="url(#mask_0_1_4105)">
<path d="M36,56L32.81,53.166C29.107,49.86 26.045,47.008 23.625,44.61C21.205,42.213 19.28,40.06 17.85,38.153C16.42,36.245 15.421,34.492 14.853,32.894C14.284,31.295 14,29.66 14,27.989C14,24.574 15.155,21.722 17.465,19.433C19.775,17.144 22.653,16 26.1,16C28.007,16 29.822,16.4 31.545,17.199C33.268,17.998 34.753,19.124 36,20.578C37.247,19.124 38.732,17.998 40.455,17.199C42.178,16.4 43.993,16 45.9,16C49.347,16 52.225,17.144 54.535,19.433C56.845,21.722 58,24.574 58,27.989C58,29.66 57.716,31.295 57.148,32.894C56.579,34.492 55.58,36.245 54.15,38.153C52.72,40.06 50.795,42.213 48.375,44.61C45.955,47.008 42.893,49.86 39.19,53.166L36,56Z" stroke="#FFFFFF" stroke-opacity="0.75" stroke-width="2" stroke-miterlimit="3.999327"/>
</g>
</svg>
