<svg width="48" height="48" viewBox="0 0 48 48" fill="none" xmlns="http://www.w3.org/2000/svg" xmlns:xlink="http://www.w3.org/1999/xlink">
<mask id="mask_0_201_1351" style="mask-type:alpha" maskUnits="userSpaceOnUse" x="0" y="0" width="24" height="24">
<rect  x="0" y="0" width="48" height="48" fill="#D9D9D9"/>
</mask>
<g mask="url(#mask_0_201_1351)">
<path d="M24,42L21.1,39.45C17.733,36.474 14.95,33.907 12.75,31.749C10.55,29.591 8.8,27.654 7.5,25.937C6.2,24.221 5.292,22.643 4.775,21.204C4.258,19.766 4,18.294 4,16.79C4,13.717 5.05,11.15 7.15,9.09C9.25,7.03 11.867,6 15,6C16.733,6 18.383,6.36 19.95,7.079C21.517,7.798 22.867,8.812 24,10.12C25.133,8.812 26.483,7.798 28.05,7.079C29.617,6.36 31.267,6 33,6C36.133,6 38.75,7.03 40.85,9.09C42.95,11.15 44,13.717 44,16.79C44,18.294 43.742,19.766 43.225,21.204C42.708,22.643 41.8,24.221 40.5,25.937C39.2,27.654 37.45,29.591 35.25,31.749C33.05,33.907 30.267,36.474 26.9,39.45L24,42Z" fill="#FFFFFF" fill-opacity="0.75"/>
</g>
</svg>
