<svg width="80" height="80" viewBox="0 0 80 80" fill="none" xmlns="http://www.w3.org/2000/svg" xmlns:xlink="http://www.w3.org/1999/xlink">
<path d="M13.333,53.333L13.333,58.667L66.667,58.667L66.667,53.333L60,53.333L60,42.913C58.935,43.188 57.818,43.333 56.667,43.333C49.303,43.333 43.333,37.364 43.333,30C43.333,25.995 45.1,22.402 47.896,19.957C46.973,19.654 46.008,19.402 45,19.2L45,17.333C45,16.222 44.514,15.278 43.542,14.5C42.57,13.722 41.389,13.333 40,13.333C38.611,13.333 37.431,13.722 36.458,14.5C35.486,15.278 35,16.222 35,17.333L35,19.2C30.556,20.089 26.944,21.967 24.167,24.833C21.389,27.7 20,30.978 20,34.667L20,53.333L13.333,53.333ZM53.059,22.486C50.263,23.831 48.333,26.69 48.333,30C48.333,34.602 52.064,38.333 56.667,38.333C57.852,38.333 58.979,38.086 60,37.64L60,34.667C60,30.978 58.611,27.7 55.833,24.833C54.986,23.959 54.061,23.176 53.059,22.486ZM35.292,65.1C36.597,66.145 38.167,66.667 40,66.667C41.833,66.667 43.403,66.145 44.708,65.1C46.014,64.056 46.667,62.8 46.667,61.333L33.333,61.333C33.333,62.8 33.986,64.056 35.292,65.1Z" clip-rule="evenodd" fill-rule="evenodd" fill="#FFFFFF" fill-opacity="0.25"/>
<circle cx="56.667" cy="30" r="10" fill="#FFFFFF"/>
</svg>
