<svg width="64" height="64" viewBox="0 0 64 64" fill="none" xmlns="http://www.w3.org/2000/svg" xmlns:xlink="http://www.w3.org/1999/xlink">
<path d="M10.667,42.667L10.667,46.933L53.333,46.933L53.333,42.667L48,42.667L48,34.331C47.148,34.55 46.254,34.667 45.333,34.667C39.442,34.667 34.667,29.891 34.667,24C34.667,20.796 36.08,17.921 38.317,15.966C37.579,15.723 36.806,15.521 36,15.36L36,13.867C36,12.978 35.611,12.222 34.833,11.6C34.055,10.978 33.111,10.667 32,10.667C30.889,10.667 29.944,10.978 29.167,11.6C28.389,12.222 28,12.978 28,13.867L28,15.36C24.444,16.071 21.555,17.573 19.333,19.867C17.111,22.16 16,24.782 16,27.733L16,42.667L10.667,42.667ZM42.447,17.989C40.21,19.065 38.667,21.352 38.667,24C38.667,27.682 41.652,30.667 45.333,30.667C46.282,30.667 47.183,30.469 48,30.112L48,27.733C48,24.782 46.889,22.16 44.667,19.867C43.989,19.167 43.249,18.541 42.447,17.989ZM28.233,52.08C29.278,52.915 30.533,53.333 32,53.333C33.467,53.333 34.722,52.915 35.767,52.08C36.811,51.244 37.333,50.24 37.333,49.067L26.667,49.067C26.667,50.24 27.189,51.244 28.233,52.08Z" clip-rule="evenodd" fill-rule="evenodd" fill="#FFFFFF" fill-opacity="0.25"/>
<circle cx="45.333" cy="24" r="8" fill="#FFFFFF"/>
</svg>
