<svg width="40" height="40" viewBox="0 0 40 40" fill="none" xmlns="http://www.w3.org/2000/svg" xmlns:xlink="http://www.w3.org/1999/xlink">
<path d="M27.418,17.616C27.418,23.138 22.94,27.616 17.419,27.616C11.896,27.616 7.418,23.138 7.418,17.616C7.418,12.094 11.896,7.616 17.419,7.616C22.942,7.616 27.418,12.094 27.418,17.616Z" fill="#FFFFFF" fill-opacity="0.75"/>
<path d="M0,17.564C0,7.835 7.913,0 17.615,0C27.314,0 35.229,7.835 35.229,17.564C35.233,21.577 33.859,25.468 31.34,28.571L39.474,36.793C39.815,37.15 40.004,37.628 40,38.124C39.996,38.62 39.799,39.095 39.452,39.446C39.104,39.797 38.635,39.996 38.144,40C37.653,40.004 37.18,39.813 36.827,39.469L28.676,31.23C25.533,33.759 21.632,35.133 17.615,35.125C7.915,35.125 0,27.292 0,17.564ZM17.615,3.785C9.928,3.785 3.745,9.982 3.745,17.564C3.745,25.145 9.928,31.34 17.615,31.34C25.301,31.34 31.484,25.145 31.484,17.562C31.484,9.982 25.301,3.785 17.615,3.785Z" fill="#FFFFFF" fill-opacity="0.75"/>
</svg>
