<svg width="32" height="48" viewBox="0 0 32 48" fill="none" xmlns="http://www.w3.org/2000/svg" xmlns:xlink="http://www.w3.org/1999/xlink">
<path d="M25.6,3C26.449,3 27.263,3.316 27.863,3.879C28.463,4.441 28.8,5.204 28.8,6L28.8,42C28.8,42.796 28.463,43.559 27.863,44.121C27.263,44.684 26.449,45 25.6,45L6.4,45C5.551,45 4.737,44.684 4.137,44.121C3.537,43.559 3.2,42.796 3.2,42L3.2,6C3.2,5.204 3.537,4.441 4.137,3.879C4.737,3.316 5.551,3 6.4,3L25.6,3ZM6.4,0C4.703,0 3.075,0.632 1.875,1.757C0.674,2.883 0,4.409 0,6L0,42C0,43.591 0.674,45.117 1.875,46.243C3.075,47.368 4.703,48 6.4,48L25.6,48C27.297,48 28.925,47.368 30.125,46.243C31.326,45.117 32,43.591 32,42L32,6C32,4.409 31.326,2.883 30.125,1.757C28.925,0.632 27.297,0 25.6,0L6.4,0Z" fill="#FFFFFF" fill-opacity="0.75"/>
<path d="M16,42C16.849,42 17.662,41.684 18.263,41.121C18.863,40.559 19.2,39.796 19.2,39C19.2,38.204 18.863,37.441 18.263,36.879C17.662,36.316 16.849,36 16,36C15.151,36 14.337,36.316 13.737,36.879C13.137,37.441 12.8,38.204 12.8,39C12.8,39.796 13.137,40.559 13.737,41.121C14.337,41.684 15.151,42 16,42Z" fill="#FFFFFF" fill-opacity="0.75"/>
</svg>
