<svg width="48" height="48" viewBox="0 0 48 48" fill="none" xmlns="http://www.w3.org/2000/svg" xmlns:xlink="http://www.w3.org/1999/xlink">
<mask id="mask_0_i_1_2976;1_4698" style="mask-type:alpha" maskUnits="userSpaceOnUse" x="0" y="0" width="24" height="24">
<rect  x="0" y="0" width="48" height="48" fill="#D9D9D9"/>
</mask>
<g mask="url(#mask_0_i_1_2976;1_4698)">
<path d="M25,30C26.4,30 27.583,29.517 28.55,28.55C29.517,27.583 30,26.4 30,25L30,14L36,14L36,10L28,10L28,21C27.567,20.667 27.1,20.417 26.6,20.25C26.1,20.083 25.567,20 25,20C23.6,20 22.417,20.483 21.45,21.45C20.483,22.417 20,23.6 20,25C20,26.4 20.483,27.583 21.45,28.55C22.417,29.517 23.6,30 25,30ZM16,36C14.9,36 13.958,35.608 13.175,34.825C12.392,34.042 12,33.1 12,32L12,8C12,6.9 12.392,5.958 13.175,5.175C13.958,4.392 14.9,4 16,4L40,4C41.1,4 42.042,4.392 42.825,5.175C43.608,5.958 44,6.9 44,8L44,32C44,33.1 43.608,34.042 42.825,34.825C42.042,35.608 41.1,36 40,36L16,36ZM16,32L40,32L40,8L16,8L16,32ZM8,44C6.9,44 5.958,43.608 5.175,42.825C4.392,42.042 4,41.1 4,40L4,12L8,12L8,40L36,40L36,44L8,44Z" fill="#FFFFFF" fill-opacity="0.5"/>
</g>
</svg>
