<svg width="56" height="56" viewBox="0 0 56 56" fill="none" xmlns="http://www.w3.org/2000/svg" xmlns:xlink="http://www.w3.org/1999/xlink">
<mask id="mask_0_201_1591" style="mask-type:alpha" maskUnits="userSpaceOnUse" x="0" y="0" width="28" height="28">
<rect  x="0" y="0" width="56" height="56" fill="#D9D9D9"/>
</mask>
<g mask="url(#mask_0_201_1591)">
<path d="M29.167,35C30.8,35 32.18,34.436 33.308,33.308C34.436,32.18 35,30.8 35,29.167L35,16.333L42,16.333L42,11.667L32.667,11.667L32.667,24.5C32.161,24.111 31.617,23.819 31.033,23.625C30.45,23.43 29.828,23.333 29.167,23.333C27.533,23.333 26.153,23.897 25.025,25.025C23.897,26.153 23.333,27.533 23.333,29.167C23.333,30.8 23.897,32.18 25.025,33.308C26.153,34.436 27.533,35 29.167,35ZM18.667,42C17.383,42 16.285,41.543 15.371,40.629C14.457,39.715 14,38.617 14,37.333L14,9.333C14,8.05 14.457,6.951 15.371,6.037C16.285,5.123 17.383,4.667 18.667,4.667L46.667,4.667C47.95,4.667 49.049,5.123 49.962,6.037C50.876,6.951 51.333,8.05 51.333,9.333L51.333,37.333C51.333,38.617 50.876,39.715 49.962,40.629C49.049,41.543 47.95,42 46.667,42L18.667,42ZM9.333,51.333C8.05,51.333 6.951,50.876 6.037,49.962C5.123,49.049 4.667,47.95 4.667,46.667L4.667,14L9.333,14L9.333,46.667L42,46.667L42,51.333L9.333,51.333Z" fill="#FFFFFF" fill-opacity="0.75"/>
</g>
</svg>
