<svg width="56" height="56" viewBox="0 0 56 56" fill="none" xmlns="http://www.w3.org/2000/svg" xmlns:xlink="http://www.w3.org/1999/xlink">
<mask id="mask_0_201_617" style="mask-type:alpha" maskUnits="userSpaceOnUse" x="0" y="0" width="28" height="28">
<rect  x="0" y="0" width="56" height="56" fill="#D9D9D9"/>
</mask>
<g mask="url(#mask_0_201_617)">
<path d="M29.167,34.999C30.801,34.999 32.181,34.435 33.309,33.308C34.437,32.18 35.001,30.799 35.001,29.166L35.001,16.333L42.001,16.333L42.001,11.666L32.667,11.666L32.667,24.499C32.162,24.11 31.617,23.819 31.034,23.624C30.451,23.43 29.829,23.333 29.167,23.333C27.534,23.333 26.154,23.897 25.026,25.024C23.898,26.152 23.334,27.533 23.334,29.166C23.334,30.799 23.898,32.18 25.026,33.308C26.154,34.435 27.534,34.999 29.167,34.999ZM18.667,41.999C17.384,41.999 16.286,41.542 15.372,40.629C14.458,39.715 14.001,38.616 14.001,37.333L14.001,9.333C14.001,8.049 14.458,6.951 15.372,6.037C16.286,5.123 17.384,4.666 18.667,4.666L46.667,4.666C47.951,4.666 49.049,5.123 49.963,6.037C50.877,6.951 51.334,8.049 51.334,9.333L51.334,37.333C51.334,38.616 50.877,39.715 49.963,40.629C49.049,41.542 47.951,41.999 46.667,41.999L18.667,41.999ZM18.667,37.333L46.667,37.333L46.667,9.333L18.667,9.333L18.667,37.333ZM9.334,51.333C8.051,51.333 6.952,50.876 6.038,49.962C5.124,49.048 4.667,47.949 4.667,46.666L4.667,13.999L9.334,13.999L9.334,46.666L42.001,46.666L42.001,51.333L9.334,51.333Z" fill="#FFFFFF" fill-opacity="0.5"/>
</g>
</svg>
