<svg width="64" height="64" viewBox="0 0 64 64" fill="none" xmlns="http://www.w3.org/2000/svg" xmlns:xlink="http://www.w3.org/1999/xlink">
<mask id="mask_0_201_3535" style="mask-type:alpha" maskUnits="userSpaceOnUse" x="0" y="0" width="32" height="32">
<rect  x="0" y="0" width="64" height="64" fill="#D9D9D9"/>
</mask>
<g mask="url(#mask_0_201_3535)">
<path d="M2,60L2,12C2,10.533 2.534,9.278 3.602,8.233C4.67,7.189 5.955,6.667 7.455,6.667L37.455,6.667C38.955,6.667 40.239,7.189 41.307,8.233C42.375,9.278 42.909,10.533 42.909,12L42.909,13.133C41.818,13.622 40.818,14.222 39.909,14.933C39,15.644 38.182,16.444 37.455,17.333L37.455,12L7.455,12L7.455,44L37.455,44L37.455,33.333C38.182,34.222 39,35.022 39.909,35.733C40.818,36.444 41.818,37.044 42.909,37.533L42.909,44C42.909,45.467 42.375,46.722 41.307,47.767C40.239,48.811 38.955,49.333 37.455,49.333L12.909,49.333L2,60ZM12.909,38.667L23.818,38.667L23.818,33.333L12.909,33.333L12.909,38.667ZM48.364,33.333C46.091,33.333 44.159,32.556 42.568,31C40.977,29.444 40.182,27.556 40.182,25.333C40.182,23.111 40.977,21.222 42.568,19.667C44.159,18.111 46.091,17.333 48.364,17.333C48.864,17.333 49.341,17.378 49.795,17.467C50.25,17.556 50.682,17.667 51.091,17.8L51.091,4L62,4L62,9.333L56.545,9.333L56.545,25.333C56.545,27.556 55.75,29.444 54.159,31C52.568,32.556 50.636,33.333 48.364,33.333ZM12.909,30.667L32,30.667L32,25.333L12.909,25.333L12.909,30.667ZM12.909,22.667L32,22.667L32,17.333L12.909,17.333L12.909,22.667Z" fill="#FFFFFF" fill-opacity="0.75"/>
</g>
</svg>
