<svg width="48" height="48" viewBox="0 0 48 48" fill="none" xmlns="http://www.w3.org/2000/svg" xmlns:xlink="http://www.w3.org/1999/xlink">
<mask id="mask_0_1_1813" style="mask-type:alpha" maskUnits="userSpaceOnUse" x="0" y="0" width="24" height="24">
<rect  x="0" y="0" width="48" height="48" fill="#D9D9D9"/>
</mask>
<g mask="url(#mask_0_1_1813)">
<path d="M24,40C22.9,40 21.958,39.608 21.175,38.825C20.392,38.042 20,37.1 20,36C20,34.9 20.392,33.958 21.175,33.175C21.958,32.392 22.9,32 24,32C25.1,32 26.042,32.392 26.825,33.175C27.608,33.958 28,34.9 28,36C28,37.1 27.608,38.042 26.825,38.825C26.042,39.608 25.1,40 24,40ZM24,28C22.9,28 21.958,27.608 21.175,26.825C20.392,26.042 20,25.1 20,24C20,22.9 20.392,21.958 21.175,21.175C21.958,20.392 22.9,20 24,20C25.1,20 26.042,20.392 26.825,21.175C27.608,21.958 28,22.9 28,24C28,25.1 27.608,26.042 26.825,26.825C26.042,27.608 25.1,28 24,28ZM24,16C22.9,16 21.958,15.608 21.175,14.825C20.392,14.042 20,13.1 20,12C20,10.9 20.392,9.958 21.175,9.175C21.958,8.392 22.9,8 24,8C25.1,8 26.042,8.392 26.825,9.175C27.608,9.958 28,10.9 28,12C28,13.1 27.608,14.042 26.825,14.825C26.042,15.608 25.1,16 24,16Z" fill="#FFFFFF" fill-opacity="0.5"/>
</g>
</svg>
