<svg width="80" height="80" viewBox="0 0 80 80" fill="none" xmlns="http://www.w3.org/2000/svg" xmlns:xlink="http://www.w3.org/1999/xlink">
<mask id="mask_0_201_1561" style="mask-type:alpha" maskUnits="userSpaceOnUse" x="0" y="0" width="40" height="40">
<rect  x="0" y="0" width="80" height="80" fill="#D9D9D9"/>
</mask>
<g mask="url(#mask_0_201_1561)">
<path d="M40.003,66.666C38.169,66.666 36.6,66.014 35.294,64.708C33.989,63.402 33.336,61.833 33.336,60C33.336,58.166 33.989,56.597 35.294,55.291C36.6,53.986 38.169,53.333 40.003,53.333C41.836,53.333 43.405,53.986 44.711,55.291C46.016,56.597 46.669,58.166 46.669,60C46.669,61.833 46.016,63.402 44.711,64.708C43.405,66.014 41.836,66.666 40.003,66.666ZM40.003,46.666C38.169,46.666 36.6,46.014 35.294,44.708C33.989,43.402 33.336,41.833 33.336,40C33.336,38.166 33.989,36.597 35.294,35.291C36.6,33.986 38.169,33.333 40.003,33.333C41.836,33.333 43.405,33.986 44.711,35.291C46.016,36.597 46.669,38.166 46.669,40C46.669,41.833 46.016,43.402 44.711,44.708C43.405,46.014 41.836,46.666 40.003,46.666ZM40.003,26.666C38.169,26.666 36.6,26.014 35.294,24.708C33.989,23.402 33.336,21.833 33.336,20C33.336,18.166 33.989,16.597 35.294,15.291C36.6,13.986 38.169,13.333 40.003,13.333C41.836,13.333 43.405,13.986 44.711,15.291C46.016,16.597 46.669,18.166 46.669,20C46.669,21.833 46.016,23.402 44.711,24.708C43.405,26.014 41.836,26.666 40.003,26.666Z" fill="#FFFFFF" fill-opacity="0.5"/>
</g>
</svg>
