<svg width="48" height="48" viewBox="0 0 48 48" fill="none" xmlns="http://www.w3.org/2000/svg" xmlns:xlink="http://www.w3.org/1999/xlink">
<mask id="mask_0_201_2239" style="mask-type:alpha" maskUnits="userSpaceOnUse" x="0" y="-0.000031" width="24" height="24">
<rect  x="0" y="48" width="48" height="48" transform="rotate(-180 0 48)" fill="#D9D9D9"/>
</mask>
<g mask="url(#mask_0_201_2239)">
<path d="M24.002,38.4C23.012,38.4 22.164,38.047 21.459,37.342C20.754,36.637 20.402,35.79 20.402,34.8C20.402,33.81 20.754,32.962 21.459,32.257C22.164,31.552 23.012,31.2 24.002,31.2C24.992,31.2 25.839,31.552 26.544,32.257C27.249,32.962 27.602,33.81 27.602,34.8C27.602,35.79 27.249,36.637 26.544,37.342C25.839,38.047 24.992,38.4 24.002,38.4ZM24.002,27.6C23.012,27.6 22.164,27.247 21.459,26.542C20.754,25.837 20.402,24.99 20.402,24C20.402,23.01 20.754,22.162 21.459,21.457C22.164,20.752 23.012,20.4 24.002,20.4C24.992,20.4 25.839,20.752 26.544,21.457C27.249,22.162 27.602,23.01 27.602,24C27.602,24.99 27.249,25.837 26.544,26.542C25.839,27.247 24.992,27.6 24.002,27.6ZM24.002,16.8C23.012,16.8 22.164,16.447 21.459,15.742C20.754,15.037 20.402,14.19 20.402,13.2C20.402,12.21 20.754,11.362 21.459,10.657C22.164,9.952 23.012,9.6 24.002,9.6C24.992,9.6 25.839,9.952 26.544,10.657C27.249,11.362 27.602,12.21 27.602,13.2C27.602,14.19 27.249,15.037 26.544,15.742C25.839,16.447 24.992,16.8 24.002,16.8Z" transform="rotate(-180 24.002 24)" fill="#FFFFFF" fill-opacity="0.5"/>
</g>
</svg>
