<svg width="80" height="80" viewBox="0 0 80 80" fill="none" xmlns="http://www.w3.org/2000/svg" xmlns:xlink="http://www.w3.org/1999/xlink">
<mask id="mask_0_201_2064" style="mask-type:alpha" maskUnits="userSpaceOnUse" x="0" y="0" width="39.999683" height="40">
<rect  x="0" y="0" width="79.999" height="80" fill="#D9D9D9"/>
</mask>
<g mask="url(#mask_0_201_2064)">
<path d="M40,64C38.35,64 36.938,63.413 35.762,62.238C34.587,61.063 34,59.65 34,58C34,56.35 34.587,54.938 35.762,53.763C36.938,52.588 38.35,52 40,52C41.65,52 43.063,52.588 44.238,53.763C45.413,54.938 46,56.35 46,58C46,59.65 45.413,61.063 44.238,62.238C43.063,63.413 41.65,64 40,64ZM40,46C38.35,46 36.938,45.413 35.762,44.238C34.587,43.063 34,41.65 34,40C34,38.35 34.587,36.938 35.762,35.763C36.938,34.588 38.35,34 40,34C41.65,34 43.063,34.588 44.238,35.763C45.413,36.938 46,38.35 46,40C46,41.65 45.413,43.063 44.238,44.238C43.063,45.413 41.65,46 40,46ZM40,28C38.35,28 36.938,27.413 35.762,26.238C34.587,25.063 34,23.65 34,22C34,20.35 34.587,18.938 35.762,17.763C36.938,16.588 38.35,16 40,16C41.65,16 43.063,16.588 44.238,17.763C45.413,18.938 46,20.35 46,22C46,23.65 45.413,25.063 44.238,26.238C43.063,27.413 41.65,28 40,28Z" fill="#FFFFFF" fill-opacity="0.5" stroke="#FFFFFF" stroke-opacity="0.75" stroke-width="1" stroke-miterlimit="3.999327"/>
</g>
</svg>
