<svg width="64" height="64" viewBox="0 0 64 64" fill="none" xmlns="http://www.w3.org/2000/svg" xmlns:xlink="http://www.w3.org/1999/xlink">
<mask id="mask_0_201_3538" style="mask-type:alpha" maskUnits="userSpaceOnUse" x="0" y="0" width="32" height="32">
<rect  x="0" y="0" width="64" height="64" fill="#D9D9D9"/>
</mask>
<g mask="url(#mask_0_201_3538)">
<path d="M31.999,53.334C30.533,53.334 29.277,52.811 28.233,51.767C27.188,50.723 26.666,49.467 26.666,48C26.666,46.534 27.188,45.278 28.233,44.234C29.277,43.189 30.533,42.667 31.999,42.667C33.466,42.667 34.722,43.189 35.766,44.234C36.81,45.278 37.333,46.534 37.333,48C37.333,49.467 36.81,50.723 35.766,51.767C34.722,52.811 33.466,53.334 31.999,53.334ZM31.999,37.334C30.533,37.334 29.277,36.811 28.233,35.767C27.188,34.723 26.666,33.467 26.666,32C26.666,30.534 27.188,29.278 28.233,28.234C29.277,27.189 30.533,26.667 31.999,26.667C33.466,26.667 34.722,27.189 35.766,28.234C36.81,29.278 37.333,30.534 37.333,32C37.333,33.467 36.81,34.723 35.766,35.767C34.722,36.811 33.466,37.334 31.999,37.334ZM31.999,21.334C30.533,21.334 29.277,20.811 28.233,19.767C27.188,18.723 26.666,17.467 26.666,16C26.666,14.534 27.188,13.278 28.233,12.234C29.277,11.189 30.533,10.667 31.999,10.667C33.466,10.667 34.722,11.189 35.766,12.234C36.81,13.278 37.333,14.534 37.333,16C37.333,17.467 36.81,18.723 35.766,19.767C34.722,20.811 33.466,21.334 31.999,21.334Z" fill="#FFFFFF" fill-opacity="0.75"/>
</g>
</svg>
