<svg width="80" height="80" viewBox="0 0 80 80" fill="none" xmlns="http://www.w3.org/2000/svg" xmlns:xlink="http://www.w3.org/1999/xlink">
<mask id="mask_0_201_701" style="mask-type:alpha" maskUnits="userSpaceOnUse" x="0" y="0" width="40" height="40">
<rect  x="0" y="0" width="80" height="80" fill="#D9D9D9"/>
</mask>
<g mask="url(#mask_0_201_701)">
<path d="M39.995,66.665C38.161,66.665 36.592,66.013 35.286,64.707C33.981,63.401 33.328,61.832 33.328,59.999C33.328,58.165 33.981,56.596 35.286,55.29C36.592,53.985 38.161,53.332 39.995,53.332C41.828,53.332 43.398,53.985 44.703,55.29C46.009,56.596 46.661,58.165 46.661,59.999C46.661,61.832 46.009,63.401 44.703,64.707C43.398,66.013 41.828,66.665 39.995,66.665ZM39.995,46.665C38.161,46.665 36.592,46.013 35.286,44.707C33.981,43.401 33.328,41.832 33.328,39.999C33.328,38.165 33.981,36.596 35.286,35.29C36.592,33.985 38.161,33.332 39.995,33.332C41.828,33.332 43.398,33.985 44.703,35.29C46.009,36.596 46.661,38.165 46.661,39.999C46.661,41.832 46.009,43.401 44.703,44.707C43.398,46.013 41.828,46.665 39.995,46.665ZM39.995,26.665C38.161,26.665 36.592,26.013 35.286,24.707C33.981,23.401 33.328,21.832 33.328,19.999C33.328,18.165 33.981,16.596 35.286,15.29C36.592,13.985 38.161,13.332 39.995,13.332C41.828,13.332 43.398,13.985 44.703,15.29C46.009,16.596 46.661,18.165 46.661,19.999C46.661,21.832 46.009,23.401 44.703,24.707C43.398,26.013 41.828,26.665 39.995,26.665Z" fill="#FFFFFF" fill-opacity="0.5"/>
</g>
</svg>
