<svg width="96" height="96" viewBox="0 0 96 96" fill="none" xmlns="http://www.w3.org/2000/svg" xmlns:xlink="http://www.w3.org/1999/xlink">
<mask id="mask_0_201_1957" style="mask-type:alpha" maskUnits="userSpaceOnUse" x="0" y="0" width="48" height="48">
<rect  x="0" y="0" width="96" height="96" fill="#D9D9D9"/>
</mask>
<g mask="url(#mask_0_201_1957)">
<path d="M40,84C35.6,84 31.833,82.433 28.7,79.3C25.567,76.167 24,72.4 24,68C24,63.6 25.567,59.833 28.7,56.7C31.833,53.567 35.6,52 40,52C41.533,52 42.95,52.183 44.25,52.55C45.55,52.917 46.8,53.467 48,54.2L48,12L72,12L72,28L56,28L56,68C56,72.4 54.433,76.167 51.3,79.3C48.167,82.433 44.4,84 40,84Z" fill="#FFFFFF" fill-opacity="0.75"/>
</g>
</svg>
