<svg width="48" height="48" viewBox="0 0 48 48" fill="none" xmlns="http://www.w3.org/2000/svg" xmlns:xlink="http://www.w3.org/1999/xlink">
<mask id="mask_0_1_6213" style="mask-type:alpha" maskUnits="userSpaceOnUse" x="0" y="0" width="24" height="24">
<rect  x="0" y="0" width="48" height="48" fill="#D9D9D9"/>
</mask>
<g mask="url(#mask_0_1_6213)">
<path d="M31.368,40C29.614,40 28.123,39.333 26.895,38C25.667,36.667 25.053,35.048 25.053,33.143C25.053,31.238 25.667,29.619 26.895,28.286C28.123,26.952 29.614,26.286 31.368,26.286C31.754,26.286 32.123,26.314 32.474,26.371C32.825,26.429 33.158,26.552 33.474,26.743L33.474,8L44,8L44,12.571L37.684,12.571L37.684,33.143C37.684,35.048 37.07,36.667 35.842,38C34.614,39.333 33.123,40 31.368,40ZM4,30.857L4,26.286L20.842,26.286L20.842,30.857L4,30.857ZM4,21.714L4,17.143L29.263,17.143L29.263,21.714L4,21.714ZM4,12.571L4,8L29.263,8L29.263,12.571L4,12.571Z" fill="#FFFFFF" fill-opacity="0.75"/>
</g>
</svg>
