<svg width="48" height="48" viewBox="0 0 48 48" fill="none" xmlns="http://www.w3.org/2000/svg" xmlns:xlink="http://www.w3.org/1999/xlink">
<mask id="mask_0_1_6334" style="mask-type:alpha" maskUnits="userSpaceOnUse" x="0" y="0" width="24" height="24">
<rect  x="0" y="0" width="48" height="48" fill="#D9D9D9"/>
</mask>
<g mask="url(#mask_0_1_6334)">
<path d="M24,44C21.233,44 18.633,43.475 16.2,42.425C13.767,41.375 11.65,39.95 9.85,38.15C8.05,36.35 6.625,34.233 5.575,31.8C4.525,29.367 4,26.767 4,24C4,21.233 4.525,18.633 5.575,16.2C6.625,13.767 8.05,11.65 9.85,9.85C11.65,8.05 13.767,6.625 16.2,5.575C18.633,4.525 21.233,4 24,4C26.767,4 29.367,4.525 31.8,5.575C34.233,6.625 36.35,8.05 38.15,9.85C39.95,11.65 41.375,13.767 42.425,16.2C43.475,18.633 44,21.233 44,24C44,26.767 43.475,29.367 42.425,31.8C41.375,34.233 39.95,36.35 38.15,38.15C36.35,39.95 34.233,41.375 31.8,42.425C29.367,43.475 26.767,44 24,44ZM24,40C28.467,40 32.25,38.45 35.35,35.35C38.45,32.25 40,28.467 40,24C40,19.533 38.45,15.75 35.35,12.65C32.25,9.55 28.467,8 24,8C19.533,8 15.75,9.55 12.65,12.65C9.55,15.75 8,19.533 8,24C8,28.467 9.55,32.25 12.65,35.35C15.75,38.45 19.533,40 24,40Z" fill="#FFFFFF" fill-opacity="0.25"/>
</g>
</svg>
