<svg width="48" height="48" viewBox="0 0 48 48" fill="none" xmlns="http://www.w3.org/2000/svg" xmlns:xlink="http://www.w3.org/1999/xlink">
<mask id="mask_0_1_6000" style="mask-type:alpha" maskUnits="userSpaceOnUse" x="0" y="0" width="24" height="24">
<rect  x="0" y="0" width="48" height="48" fill="#D9D9D9"/>
</mask>
<g mask="url(#mask_0_1_6000)">
<path d="M39.2,42L26.6,29.4C25.6,30.2 24.45,30.833 23.15,31.3C21.85,31.767 20.467,32 19,32C15.367,32 12.292,30.742 9.775,28.225C7.258,25.708 6,22.633 6,19C6,15.367 7.258,12.292 9.775,9.775C12.292,7.258 15.367,6 19,6C22.633,6 25.708,7.258 28.225,9.775C30.742,12.292 32,15.367 32,19C32,20.467 31.767,21.85 31.3,23.15C30.833,24.45 30.2,25.6 29.4,26.6L42,39.2L39.2,42ZM19,28C21.5,28 23.625,27.125 25.375,25.375C27.125,23.625 28,21.5 28,19C28,16.5 27.125,14.375 25.375,12.625C23.625,10.875 21.5,10 19,10C16.5,10 14.375,10.875 12.625,12.625C10.875,14.375 10,16.5 10,19C10,21.5 10.875,23.625 12.625,25.375C14.375,27.125 16.5,28 19,28Z" fill="#000000" fill-opacity="0.75"/>
</g>
</svg>
