<svg width="80" height="80" viewBox="0 0 80 80" fill="none" xmlns="http://www.w3.org/2000/svg" xmlns:xlink="http://www.w3.org/1999/xlink">
<mask id="mask_0_201_2864" style="mask-type:alpha" maskUnits="userSpaceOnUse" x="0" y="0" width="40" height="40">
<rect  x="0" y="0" width="80" height="80" fill="#D9D9D9"/>
</mask>
<g mask="url(#mask_0_201_2864)">
<path d="M53.562,62.222C51.773,62.222 50.253,61.594 49.001,60.339C47.749,59.083 47.123,57.559 47.123,55.765C47.123,55.514 47.148,55.223 47.197,54.893C47.246,54.562 47.32,54.264 47.419,54L30.99,44.444C30.41,45.049 29.719,45.534 28.918,45.898C28.116,46.262 27.29,46.444 26.438,46.444C24.65,46.444 23.13,45.818 21.878,44.565C20.626,43.312 20,41.79 20,40C20,38.21 20.626,36.688 21.878,35.435C23.13,34.182 24.65,33.555 26.438,33.555C27.29,33.555 28.104,33.719 28.881,34.046C29.658,34.373 30.361,34.839 30.99,35.444L47.419,25.963C47.32,25.714 47.246,25.434 47.197,25.123C47.148,24.813 47.123,24.512 47.123,24.222C47.123,22.432 47.749,20.91 49.001,19.657C50.253,18.404 51.773,17.778 53.562,17.778C55.35,17.778 56.87,18.404 58.122,19.657C59.374,20.91 60,22.432 60,24.222C60,26.012 59.374,27.534 58.122,28.787C56.87,30.04 55.35,30.666 53.562,30.666C52.702,30.666 51.879,30.521 51.094,30.231C50.309,29.941 49.627,29.494 49.047,28.889L32.618,38.148C32.692,38.42 32.754,38.731 32.803,39.083C32.852,39.435 32.877,39.744 32.877,40.009C32.877,40.274 32.852,40.549 32.803,40.833C32.754,41.117 32.692,41.395 32.618,41.666L49.047,51.074C49.627,50.543 50.293,50.12 51.045,49.805C51.798,49.491 52.636,49.333 53.562,49.333C55.35,49.333 56.87,49.96 58.122,51.213C59.374,52.466 60,53.987 60,55.778C60,57.568 59.374,59.089 58.122,60.342C56.87,61.596 55.35,62.222 53.562,62.222Z" fill="#FFFFFF" fill-opacity="0.75"/>
</g>
</svg>
