<svg width="48" height="48" viewBox="0 0 48 48" fill="none" xmlns="http://www.w3.org/2000/svg" xmlns:xlink="http://www.w3.org/1999/xlink">
<mask id="mask_0_1_2776" style="mask-type:alpha" maskUnits="userSpaceOnUse" x="0" y="0" width="24" height="24">
<rect  x="0" y="0" width="48" height="48" fill="#D9D9D9"/>
</mask>
<g mask="url(#mask_0_1_2776)">
<path d="M36,44C34.333,44 32.917,43.417 31.75,42.25C30.583,41.083 30,39.667 30,38C30,37.767 30.017,37.525 30.05,37.275C30.083,37.025 30.133,36.8 30.2,36.6L16.1,28.4C15.533,28.9 14.9,29.292 14.2,29.575C13.5,29.858 12.767,30 12,30C10.333,30 8.917,29.417 7.75,28.25C6.583,27.083 6,25.667 6,24C6,22.333 6.583,20.917 7.75,19.75C8.917,18.583 10.333,18 12,18C12.767,18 13.5,18.142 14.2,18.425C14.9,18.708 15.533,19.1 16.1,19.6L30.2,11.4C30.133,11.2 30.083,10.975 30.05,10.725C30.017,10.475 30,10.233 30,10C30,8.333 30.583,6.917 31.75,5.75C32.917,4.583 34.333,4 36,4C37.667,4 39.083,4.583 40.25,5.75C41.417,6.917 42,8.333 42,10C42,11.667 41.417,13.083 40.25,14.25C39.083,15.417 37.667,16 36,16C35.233,16 34.5,15.858 33.8,15.575C33.1,15.292 32.467,14.9 31.9,14.4L17.8,22.6C17.867,22.8 17.917,23.025 17.95,23.275C17.983,23.525 18,23.767 18,24C18,24.233 17.983,24.475 17.95,24.725C17.917,24.975 17.867,25.2 17.8,25.4L31.9,33.6C32.467,33.1 33.1,32.708 33.8,32.425C34.5,32.142 35.233,32 36,32C37.667,32 39.083,32.583 40.25,33.75C41.417,34.917 42,36.333 42,38C42,39.667 41.417,41.083 40.25,42.25C39.083,43.417 37.667,44 36,44Z" fill="#FFFFFF" fill-opacity="0.75"/>
</g>
</svg>
