<svg width="72" height="72" viewBox="0 0 72 72" fill="none" xmlns="http://www.w3.org/2000/svg" xmlns:xlink="http://www.w3.org/1999/xlink">
<mask id="mask_0_1_3929" style="mask-type:alpha" maskUnits="userSpaceOnUse" x="0" y="0" width="36" height="36">
<rect  x="0" y="0" width="72" height="72" fill="#D9D9D9"/>
</mask>
<g mask="url(#mask_0_1_3929)">
<path d="M48.205,56C46.596,56 45.228,55.435 44.101,54.305C42.974,53.175 42.411,51.803 42.411,50.189C42.411,49.963 42.433,49.701 42.477,49.403C42.522,49.106 42.588,48.838 42.677,48.6L27.891,40C27.369,40.544 26.747,40.98 26.026,41.308C25.304,41.636 24.561,41.8 23.795,41.8C22.185,41.8 20.817,41.236 19.69,40.108C18.563,38.98 18,37.611 18,36C18,34.389 18.563,33.019 19.69,31.892C20.817,30.764 22.185,30.2 23.795,30.2C24.561,30.2 25.293,30.347 25.993,30.642C26.692,30.936 27.325,31.355 27.891,31.9L42.677,23.367C42.588,23.143 42.522,22.891 42.477,22.611C42.433,22.331 42.411,22.061 42.411,21.8C42.411,20.189 42.974,18.819 44.101,17.691C45.228,16.564 46.596,16 48.205,16C49.815,16 51.183,16.564 52.31,17.691C53.437,18.819 54,20.189 54,21.8C54,23.411 53.437,24.78 52.31,25.908C51.183,27.036 49.815,27.6 48.205,27.6C47.432,27.6 46.691,27.469 45.985,27.208C45.278,26.947 44.664,26.544 44.142,26L29.356,34.333C29.423,34.578 29.478,34.858 29.523,35.175C29.567,35.492 29.589,35.769 29.589,36.008C29.589,36.247 29.567,36.494 29.523,36.75C29.478,37.005 29.423,37.255 29.356,37.5L44.142,45.966C44.664,45.489 45.264,45.108 45.941,44.825C46.618,44.541 47.373,44.4 48.205,44.4C49.815,44.4 51.183,44.964 52.31,46.092C53.437,47.219 54,48.589 54,50.2C54,51.811 53.437,53.18 52.31,54.308C51.183,55.436 49.815,56 48.205,56Z" fill="#FFFFFF" fill-opacity="0.75"/>
</g>
</svg>
