<svg width="80" height="80" viewBox="0 0 80 80" fill="none" xmlns="http://www.w3.org/2000/svg" xmlns:xlink="http://www.w3.org/1999/xlink">
<mask id="mask_0_201_3205" style="mask-type:alpha" maskUnits="userSpaceOnUse" x="0" y="0" width="40" height="40">
<rect  x="0" y="0" width="80" height="80" fill="#D9D9D9"/>
</mask>
<g mask="url(#mask_0_201_3205)">
<path d="M46.669,66.665L46.669,59.999L55.336,59.999L44.753,49.415L49.503,44.665L60.003,55.165L60.003,46.665L66.669,46.665L66.669,66.665L46.669,66.665ZM18.003,66.665L13.336,61.999L55.336,19.999L46.669,19.999L46.669,13.332L66.669,13.332L66.669,33.332L60.003,33.332L60.003,24.665L18.003,66.665ZM30.586,35.249L13.336,17.999L18.003,13.332L35.253,30.582L30.586,35.249Z" fill="#FFFFFF" fill-opacity="0.75"/>
</g>
</svg>
