<svg width="48" height="48" viewBox="0 0 48 48" fill="none" xmlns="http://www.w3.org/2000/svg" xmlns:xlink="http://www.w3.org/1999/xlink">
<mask id="mask_0_1_2762" style="mask-type:alpha" maskUnits="userSpaceOnUse" x="0" y="0" width="24" height="24">
<rect  x="0" y="0" width="48" height="48" fill="#D9D9D9"/>
</mask>
<g mask="url(#mask_0_1_2762)">
<path d="M28,40L28,36L33.2,36L26.85,29.65L29.7,26.8L36,33.1L36,28L40,28L40,40L28,40ZM10.8,40L8,37.2L33.2,12L28,12L28,8L40,8L40,20L36,20L36,14.8L10.8,40ZM18.35,21.15L8,10.8L10.8,8L21.15,18.35L18.35,21.15Z" fill="#FFFFFF" fill-opacity="0.75"/>
</g>
</svg>
