<svg width="40" height="40" viewBox="0 0 40 40" fill="none" xmlns="http://www.w3.org/2000/svg" xmlns:xlink="http://www.w3.org/1999/xlink">
<path d="M17,0C14.289,0 11.618,0.649 9.209,1.891C6.799,3.134 4.722,4.935 3.15,7.144C1.579,9.352 0.558,11.905 0.173,14.588C-0.211,17.271 0.052,20.008 0.94,22.569C1.828,25.13 3.315,27.442 5.278,29.311C7.242,31.181 9.623,32.554 12.225,33.315C14.827,34.077 17.573,34.205 20.234,33.69C22.895,33.174 25.395,32.03 27.524,30.352L34.828,37.656C35.205,38.02 35.71,38.222 36.235,38.217C36.759,38.213 37.261,38.002 37.632,37.632C38.002,37.261 38.213,36.759 38.217,36.235C38.222,35.71 38.02,35.205 37.656,34.828L30.352,27.524C32.328,25.017 33.558,22.005 33.902,18.831C34.246,15.658 33.69,12.452 32.296,9.58C30.903,6.708 28.73,4.287 26.025,2.592C23.319,0.898 20.192,0 17,0ZM4,17C4,13.552 5.37,10.246 7.808,7.808C10.246,5.37 13.552,4 17,4C20.448,4 23.754,5.37 26.192,7.808C28.63,10.246 30,13.552 30,17C30,20.448 28.63,23.754 26.192,26.192C23.754,28.63 20.448,30 17,30C13.552,30 10.246,28.63 7.808,26.192C5.37,23.754 4,20.448 4,17Z" clip-rule="evenodd" fill-rule="evenodd" fill="#FFFFFF" fill-opacity="0.5"/>
</svg>
