<svg width="48" height="40" viewBox="0 0 48 40" fill="none" xmlns="http://www.w3.org/2000/svg" xmlns:xlink="http://www.w3.org/1999/xlink">
<path d="M10.292,0.733L0.704,10.733L0.503,10.97C0.145,11.451 -0.032,12.052 0.005,12.66C0.042,13.267 0.291,13.84 0.704,14.27L0.932,14.477C1.394,14.85 1.971,15.034 2.554,14.996C3.137,14.957 3.687,14.698 4.1,14.267L9.601,8.525L9.601,37.498L9.617,37.79C9.686,38.399 9.966,38.96 10.405,39.367C10.845,39.775 11.412,40 12.001,40L12.281,39.982C12.865,39.911 13.404,39.618 13.795,39.16C14.185,38.702 14.401,38.11 14.4,37.498L14.4,8.543L19.903,14.267L20.131,14.477C20.614,14.871 21.222,15.057 21.832,14.998C22.442,14.939 23.007,14.639 23.412,14.16C23.817,13.681 24.03,13.059 24.009,12.421C23.987,11.783 23.733,11.178 23.297,10.73L13.683,0.731L13.457,0.524C12.995,0.151 12.418,-0.034 11.835,0.005C11.252,0.044 10.705,0.303 10.292,0.733ZM35.999,0.009L35.719,0.026C35.135,0.098 34.597,0.39 34.206,0.848C33.815,1.305 33.6,1.896 33.6,2.508L33.6,31.456L28.097,25.731L27.869,25.521C27.386,25.133 26.779,24.95 26.172,25.01C25.565,25.071 25.003,25.37 24.599,25.847C24.196,26.324 23.983,26.943 24.002,27.578C24.021,28.213 24.272,28.817 24.703,29.266L34.312,39.265L34.538,39.475C35,39.848 35.577,40.032 36.16,39.994C36.743,39.955 37.293,39.696 37.706,39.265L47.296,29.266L47.497,29.028C47.855,28.547 48.032,27.946 47.995,27.339C47.958,26.731 47.709,26.159 47.296,25.729L47.068,25.521C46.606,25.149 46.029,24.964 45.446,25.003C44.863,25.041 44.313,25.3 43.9,25.731L38.399,31.466L38.399,2.508L38.383,2.218C38.314,1.61 38.034,1.049 37.595,0.641C37.155,0.234 36.588,0.009 35.999,0.009Z" fill="#FFFFFF" fill-opacity="0.75"/>
</svg>
