<svg width="162" height="68" viewBox="0 0 162 68" fill="none" xmlns="http://www.w3.org/2000/svg" xmlns:xlink="http://www.w3.org/1999/xlink">
<path d="M3.998,43.001L-0.752,43.001L3.998,43.001ZM41.998,5.001L41.998,0.251L41.998,5.001ZM117.998,5.001L117.998,0.251L117.998,5.001ZM8.748,43.001C8.748,34.182 12.251,25.725 18.486,19.489L11.769,12.772C3.752,20.789 -0.752,31.663 -0.752,43.001L8.748,43.001ZM18.486,19.489C24.722,13.254 33.179,9.751 41.998,9.751L41.998,0.251C30.66,0.251 19.786,4.755 11.769,12.772L18.486,19.489ZM41.998,9.751L117.998,9.751L117.998,0.251L41.998,0.251L41.998,9.751ZM117.998,9.751C126.816,9.751 135.273,13.254 141.509,19.489L148.226,12.772C140.209,4.755 129.336,0.251 117.998,0.251L117.998,9.751ZM141.509,19.489C147.744,25.725 151.248,34.182 151.248,43.001L160.748,43.001C160.748,31.663 156.244,20.789 148.226,12.772L141.509,19.489ZM151.248,43.001C151.248,46.78 149.746,50.405 147.074,53.077L153.791,59.795C158.245,55.341 160.748,49.3 160.748,43.001L151.248,43.001ZM147.074,53.077C144.401,55.75 140.777,57.251 136.998,57.251L136.998,66.751C143.297,66.751 149.337,64.249 153.791,59.795L147.074,53.077ZM136.998,57.251L22.998,57.251L22.998,66.751L136.998,66.751L136.998,57.251ZM22.998,57.251C19.218,57.251 15.594,55.75 12.921,53.077L6.204,59.795C10.658,64.249 16.699,66.751 22.998,66.751L22.998,57.251ZM12.921,53.077C10.249,50.405 8.748,46.78 8.748,43.001L-0.752,43.001C-0.752,49.3 1.75,55.341 6.204,59.795L12.921,53.077Z" fill="#FFFFFF" fill-opacity="0.75"/>
</svg>
