<svg width="32" height="32" viewBox="0 0 32 32" fill="none" xmlns="http://www.w3.org/2000/svg" xmlns:xlink="http://www.w3.org/1999/xlink">
<path d="M13.5,-0.667C11.241,-0.666 9.015,-0.126 7.007,0.909C4.999,1.945 3.269,3.446 1.959,5.286C0.649,7.127 -0.202,9.254 -0.522,11.49C-0.843,13.726 -0.624,16.007 0.116,18.141C0.856,20.275 2.096,22.202 3.732,23.76C5.368,25.317 7.353,26.461 9.521,27.096C11.689,27.731 13.977,27.838 16.195,27.408C18.413,26.979 20.496,26.025 22.27,24.627L28.357,30.713C28.671,31.017 29.092,31.185 29.529,31.181C29.966,31.177 30.384,31.002 30.693,30.693C31.002,30.384 31.177,29.966 31.181,29.529C31.185,29.092 31.017,28.671 30.713,28.357L24.627,22.27C26.273,20.181 27.299,17.671 27.585,15.026C27.872,12.382 27.408,9.71 26.247,7.317C25.086,4.924 23.275,2.906 21.021,1.494C18.766,0.082 16.16,-0.667 13.5,-0.667ZM2.667,13.5C2.667,10.627 3.808,7.871 5.84,5.84C7.871,3.808 10.627,2.667 13.5,2.667C16.373,2.667 19.129,3.808 21.16,5.84C23.192,7.871 24.333,10.627 24.333,13.5C24.333,16.373 23.192,19.129 21.16,21.16C19.129,23.192 16.373,24.333 13.5,24.333C10.627,24.333 7.871,23.192 5.84,21.16C3.808,19.129 2.667,16.373 2.667,13.5Z" clip-rule="evenodd" fill-rule="evenodd" fill="#FFFFFF" fill-opacity="0.5"/>
</svg>
