<svg width="68" height="28" viewBox="0 0 68 28" fill="none" xmlns="http://www.w3.org/2000/svg" xmlns:xlink="http://www.w3.org/1999/xlink">
<path d="M1.999,18L-0.001,18L1.999,18ZM17.999,2L17.999,0L17.999,2ZM49.999,2L49.999,0L49.999,2ZM3.999,18C3.999,14.287 5.474,10.726 8.1,8.101L5.271,5.272C1.895,8.648 -0.001,13.226 -0.001,18L3.999,18ZM8.1,8.101C10.725,5.475 14.286,4 17.999,4L17.999,0C13.225,0 8.647,1.897 5.271,5.272L8.1,8.101ZM17.999,4L49.999,4L49.999,0L17.999,0L17.999,4ZM49.999,4C53.712,4 57.273,5.475 59.898,8.101L62.727,5.272C59.351,1.897 54.773,0 49.999,0L49.999,4ZM59.898,8.101C62.524,10.726 63.999,14.287 63.999,18L67.999,18C67.999,13.226 66.103,8.648 62.727,5.272L59.898,8.101ZM63.999,18C63.999,19.592 63.367,21.118 62.242,22.243L65.07,25.071C66.945,23.196 67.999,20.652 67.999,18L63.999,18ZM62.242,22.243C61.116,23.368 59.59,24 57.999,24L57.999,28C60.651,28 63.195,26.947 65.07,25.071L62.242,22.243ZM57.999,24L9.999,24L9.999,28L57.999,28L57.999,24ZM9.999,24C8.408,24 6.882,23.368 5.756,22.243L2.928,25.071C4.803,26.947 7.347,28 9.999,28L9.999,24ZM5.756,22.243C4.631,21.118 3.999,19.592 3.999,18L-0.001,18C-0.001,20.652 1.053,23.196 2.928,25.071L5.756,22.243Z" fill="#FFFFFF" fill-opacity="0.75"/>
</svg>
