<svg width="32" height="24" viewBox="0 0 32 24" fill="none" xmlns="http://www.w3.org/2000/svg" xmlns:xlink="http://www.w3.org/1999/xlink">
<path d="M6.861,0.44L0.469,6.44L0.335,6.582C0.096,6.871 -0.022,7.231 0.003,7.596C0.028,7.96 0.194,8.304 0.469,8.562L0.621,8.686C0.929,8.91 1.314,9.021 1.703,8.997C2.092,8.974 2.458,8.819 2.733,8.56L6.4,5.115L6.4,22.499L6.412,22.674C6.457,23.039 6.644,23.376 6.937,23.62C7.23,23.865 7.608,24 8,24L8.188,23.99C8.577,23.946 8.936,23.771 9.196,23.496C9.457,23.221 9.601,22.866 9.6,22.499L9.6,5.126L13.269,8.56L13.421,8.686C13.743,8.922 14.148,9.034 14.555,8.999C14.961,8.963 15.338,8.783 15.608,8.496C15.878,8.209 16.02,7.835 16.006,7.453C15.992,7.07 15.822,6.707 15.531,6.438L9.122,0.439L8.971,0.314C8.663,0.09 8.279,-0.02 7.89,0.003C7.501,0.026 7.136,0.182 6.861,0.44ZM24,0.005L23.812,0.016C23.423,0.059 23.064,0.234 22.804,0.509C22.544,0.783 22.4,1.138 22.4,1.505L22.4,18.873L18.731,15.439L18.579,15.313C18.257,15.08 17.853,14.97 17.448,15.006C17.043,15.043 16.668,15.222 16.4,15.508C16.131,15.794 15.988,16.166 16.001,16.547C16.014,16.928 16.181,17.29 16.469,17.56L22.875,23.559L23.025,23.685C23.333,23.909 23.718,24.019 24.107,23.996C24.495,23.973 24.862,23.818 25.137,23.559L31.531,17.56L31.665,17.417C31.904,17.128 32.022,16.768 31.997,16.403C31.972,16.039 31.806,15.695 31.531,15.437L31.379,15.313C31.071,15.089 30.686,14.979 30.297,15.002C29.908,15.025 29.542,15.18 29.267,15.439L25.6,18.879L25.6,1.505L25.588,1.331C25.543,0.966 25.356,0.629 25.063,0.385C24.77,0.14 24.392,0.005 24,0.005Z" fill="#FFFFFF" fill-opacity="0.75"/>
</svg>
