<svg width="40" height="32" viewBox="0 0 40 32" fill="none" xmlns="http://www.w3.org/2000/svg" xmlns:xlink="http://www.w3.org/1999/xlink">
<path d="M16.842,0C19.075,0 21.217,0.843 22.797,2.343C24.376,3.843 25.263,5.878 25.263,8C25.263,10.122 24.376,12.157 22.797,13.657C21.217,15.157 19.075,16 16.842,16C14.609,16 12.467,15.157 10.888,13.657C9.308,12.157 8.421,10.122 8.421,8C8.421,5.878 9.308,3.843 10.888,2.343C12.467,0.843 14.609,0 16.842,0ZM16.842,4C15.725,4 14.654,4.421 13.865,5.172C13.075,5.922 12.632,6.939 12.632,8C12.632,9.061 13.075,10.078 13.865,10.828C14.654,11.579 15.725,12 16.842,12C17.959,12 19.03,11.579 19.819,10.828C20.609,10.078 21.053,9.061 21.053,8C21.053,6.939 20.609,5.922 19.819,5.172C19.03,4.421 17.959,4 16.842,4ZM16.842,18C19.158,18 22.442,18.46 25.495,19.38C24.211,20.14 23.158,21.2 22.337,22.46C20.611,22.06 18.716,21.8 16.842,21.8C10.589,21.8 4,24.72 4,26L4,28.2L21.137,28.2C21.326,29.6 21.853,30.88 22.653,32L0,32L0,26C0,20.68 11.221,18 16.842,18ZM32.632,12L40,12L40,16L35.789,16L35.789,27C35.789,28.326 35.235,29.598 34.248,30.536C33.261,31.473 31.922,32 30.526,32C29.13,32 27.792,31.473 26.805,30.536C25.818,29.598 25.263,28.326 25.263,27C25.263,25.674 25.818,24.402 26.805,23.464C27.792,22.527 29.13,22 30.526,22C31.284,22 31.979,22.14 32.632,22.42L32.632,12Z" fill="#FFFFFF" fill-opacity="0.75"/>
</svg>
