<svg width="48" height="48" viewBox="0 0 48 48" fill="none" xmlns="http://www.w3.org/2000/svg" xmlns:xlink="http://www.w3.org/1999/xlink">
<path d="M24.489,9.28C29.088,9.28 32.19,11.227 33.959,12.853L40.87,6.24C36.625,2.373 31.102,0 24.489,0C14.911,0 6.639,5.387 2.612,13.227L10.53,19.253C12.517,13.467 18.013,9.28 24.489,9.28Z" fill="#EA4335"/>
<path d="M48,24.533C48,22.56 47.836,21.12 47.483,19.627L24.489,19.627L24.489,28.533L37.986,28.533C37.714,30.747 36.245,34.08 32.979,36.32L40.707,42.187C45.333,38 48,31.84 48,24.533Z" fill="#4285F4"/>
<path d="M10.557,28.747C10.04,27.253 9.741,25.653 9.741,24C9.741,22.347 10.04,20.747 10.53,19.253L2.612,13.227C0.952,16.48 0,20.133 0,24C0,27.867 0.952,31.52 2.612,34.773L10.557,28.747Z" fill="#FBBC05"/>
<path d="M24.489,48C31.102,48 36.653,45.867 40.707,42.187L32.979,36.32C30.911,37.733 28.136,38.72 24.489,38.72C18.013,38.72 12.517,34.533 10.557,28.747L2.639,34.773C6.666,42.613 14.911,48 24.489,48Z" fill="#34A853"/>
</svg>
