<svg width="68" height="66" viewBox="0 0 68 66" fill="none" xmlns="http://www.w3.org/2000/svg" xmlns:xlink="http://www.w3.org/1999/xlink">
<path d="M57.748,32.5C57.748,45.617 47.114,56.25 33.998,56.25L33.998,65.75C52.361,65.75 67.248,50.864 67.248,32.5L57.748,32.5ZM33.998,56.25C20.881,56.25 10.248,45.617 10.248,32.5L0.748,32.5C0.748,50.864 15.634,65.75 33.998,65.75L33.998,56.25ZM10.248,32.5C10.248,19.384 20.881,8.75 33.998,8.75L33.998,-0.75C15.634,-0.75 0.748,14.137 0.748,32.5L10.248,32.5ZM33.998,8.75C47.114,8.75 57.748,19.384 57.748,32.5L67.248,32.5C67.248,14.137 52.361,-0.75 33.998,-0.75L33.998,8.75Z" fill="#FFFFFF" fill-opacity="0.75"/>
</svg>
