<svg width="48" height="48" viewBox="0 0 48 48" fill="none" xmlns="http://www.w3.org/2000/svg" xmlns:xlink="http://www.w3.org/1999/xlink">
<path d="M0.664,21.159C0.664,9.809 9.896,0.668 21.214,0.668C32.531,0.668 41.765,9.809 41.765,21.159C41.769,25.841 40.166,30.38 37.228,34.001L46.717,43.593C47.115,44.009 47.336,44.567 47.331,45.146C47.326,45.725 47.096,46.279 46.691,46.688C46.286,47.097 45.738,47.33 45.165,47.335C44.592,47.34 44.04,47.117 43.628,46.715L34.119,37.103C30.452,40.054 25.901,41.656 21.214,41.647C9.898,41.647 0.664,32.508 0.664,21.159ZM21.214,5.084C12.247,5.084 5.033,12.313 5.033,21.159C5.033,30.004 12.247,37.231 21.214,37.231C30.182,37.231 37.396,30.004 37.396,21.157C37.396,12.313 30.182,5.084 21.214,5.084Z" fill="#FFFFFF" fill-opacity="0.5"/>
</svg>
