<svg width="28" height="28" viewBox="0 0 28 28" fill="none" xmlns="http://www.w3.org/2000/svg" xmlns:xlink="http://www.w3.org/1999/xlink">
<path d="M23.999,14C23.999,19.523 19.522,24 13.999,24L13.999,28C21.731,28 27.999,21.732 27.999,14L23.999,14ZM13.999,24C8.476,24 3.999,19.523 3.999,14L-0.001,14C-0.001,21.732 6.267,28 13.999,28L13.999,24ZM3.999,14C3.999,8.477 8.476,4 13.999,4L13.999,0C6.267,0 -0.001,6.268 -0.001,14L3.999,14ZM13.999,4C19.522,4 23.999,8.477 23.999,14L27.999,14C27.999,6.268 21.731,0 13.999,0L13.999,4Z" fill="#FFFFFF" fill-opacity="0.75"/>
</svg>
